<?xml version="1.0" encoding="iso-8859-1"?>
<!-- Generator: Adobe Illustrator 19.0.0, SVG Export Plug-In . SVG Version: 6.00 Build 0)  -->
<svg version="1.1" id="Capa_1" xmlns="http://www.w3.org/2000/svg" xmlns:xlink="http://www.w3.org/1999/xlink" x="0px" y="0px"
	 viewBox="0 0 512 512" style="enable-background:new 0 0 512 512;" xml:space="preserve">
<path style="fill:#495059;" d="M343.235,108.211l-38.146,6.726l-7.119-40.375c-1.728-9.798-11.104-16.364-20.902-14.636
	L154.744,81.495c-9.798,1.728-16.364,11.104-14.636,20.902l7.119,40.375l-38.146,6.726l-7.119-40.375
	c-5.436-30.832,15.224-60.338,46.056-65.775L270.341,21.78c30.832-5.437,60.338,15.224,65.775,46.056L343.235,108.211z"/>
<path style="fill:#CE9786;" d="M473.029,423.712L95.022,490.365c-25.645,4.522-50.1-12.602-54.622-38.247L0.724,227.106
	c-4.522-25.645,12.602-50.1,38.247-54.622l378.007-66.653c25.645-4.522,50.1,12.602,54.622,38.247l39.676,225.012
	C515.798,394.735,498.674,419.19,473.029,423.712z"/>
<g>
	
		<rect x="83.307" y="161.795" transform="matrix(-0.9848 0.1736 -0.1736 -0.9848 281.7733 621.7292)" style="fill:#F9F1DA;" width="60.779" height="322.785"/>
	
		<rect x="367.921" y="111.605" transform="matrix(0.9848 -0.1736 0.1736 0.9848 -41.3451 73.2931)" style="fill:#F9F1DA;" width="60.779" height="322.785"/>
</g>
<g>
	<path style="fill:#F8E686;" d="M152.929,119.207l-57.268,10.098c-7.284,1.284-12.148,8.23-10.863,15.514l3.349,18.994
		l83.646-14.749l-3.349-18.994C167.16,122.786,160.213,117.922,152.929,119.207z"/>
	<path style="fill:#F8E686;" d="M291.67,94.743l57.268-10.098c7.284-1.284,14.23,3.579,15.514,10.863l3.349,18.994l-83.646,14.749
		l-3.349-18.994C279.523,102.973,284.386,96.027,291.67,94.743z"/>
</g>
<circle style="opacity:0.15;fill:#A95425;enable-background:new    ;" cx="348.43" cy="276.55" r="43.918"/>
<circle style="fill:#6DA1D9;" cx="353.19" cy="267.84" r="43.918"/>
<path style="opacity:0.15;fill:#A95425;enable-background:new    ;" d="M104.494,160.93l-65.523,11.553
	c-25.645,4.522-42.769,28.977-38.247,54.622L40.4,452.118c4.522,25.645,28.977,42.769,54.622,38.247l286.897-50.588
	C156.773,408.822,108.351,249.221,104.494,160.93z"/>
<path style="fill:#95DAB8;" d="M239.687,400.856h-86.021c-7.308,0-13.233-5.925-13.233-13.233v-39.314
	c0-7.309,5.925-13.233,13.233-13.233h86.021c7.308,0,13.233,5.925,13.233,13.233v39.314
	C252.92,394.932,246.995,400.856,239.687,400.856z"/>
<path style="fill:#495059;" d="M217.923,375.466h-42.492c-4.143,0-7.5-3.358-7.5-7.5s3.357-7.5,7.5-7.5h42.492
	c4.142,0,7.5,3.358,7.5,7.5S222.065,375.466,217.923,375.466z"/>
<path style="opacity:0.15;fill:#2C6245;enable-background:new    ;" d="M170.725,335.076h-17.059
	c-7.308,0-13.233,5.924-13.233,13.233v39.314c0,7.309,5.925,13.233,13.233,13.233h86.021c3.215,0,6.16-1.148,8.452-3.054
	C215.884,380.037,190.533,358.437,170.725,335.076z"/>
<g>
	<path style="fill:#F5C07E;" d="M511.276,369.09c4.522,25.645-12.602,50.1-38.247,54.622l-16.783,2.96
		c-6.156-34.915,17.157-68.21,52.072-74.366L511.276,369.09z"/>
	<path style="fill:#F5C07E;" d="M40.4,452.118c4.522,25.645,28.977,42.769,54.622,38.247l16.784-2.959
		c-6.156-34.915-39.451-58.228-74.366-52.072L40.4,452.118z"/>
	<path style="fill:#F5C07E;" d="M0.724,227.106c-4.522-25.645,12.602-50.1,38.247-54.622l16.784-2.96
		c6.156,34.915-17.157,68.21-52.072,74.366L0.724,227.106z"/>
	<path style="fill:#F5C07E;" d="M471.6,144.078c-4.522-25.645-28.977-42.769-54.622-38.247l-16.784,2.959
		c6.156,34.915,39.451,58.228,74.366,52.072L471.6,144.078z"/>
</g>
<path style="opacity:0.15;fill:#A95425;enable-background:new    ;" d="M233.703,239.921l-59.32,25.357
	c-7.11,3.039-15.339-0.261-18.378-7.371l-8.506-19.898c-3.04-7.111,0.261-15.339,7.371-18.378l59.32-25.358
	c7.11-3.039,15.339,0.261,18.378,7.371l8.506,19.898C244.113,228.653,240.813,236.881,233.703,239.921z"/>
<path style="fill:#F8E686;" d="M239.059,233.476l-62.663,22.807c-7.511,2.734-15.816-1.139-18.55-8.65l-7.65-21.019
	c-2.734-7.511,1.139-15.816,8.65-18.55l62.663-22.807c7.511-2.734,15.816,1.139,18.55,8.65l7.65,21.019
	C250.443,222.437,246.57,230.742,239.059,233.476z"/>
<g>
</g>
<g>
</g>
<g>
</g>
<g>
</g>
<g>
</g>
<g>
</g>
<g>
</g>
<g>
</g>
<g>
</g>
<g>
</g>
<g>
</g>
<g>
</g>
<g>
</g>
<g>
</g>
<g>
</g>
</svg>
